<svg width="60" height="60" viewBox="0 0 112 120" xmlns="http://www.w3.org/2000/svg">
    <g transform="matrix(1.33333,0,0,1.33333,0,0)">
        <g transform="matrix(1,0,0,1,1.00575,1.4994)">
            <g transform="matrix(1,0,0,1,4,5)">
                <path d="M55.2,23.55L2.85,76.51L10.22,76.51L58.95,27.37C59.09,27.23 59.15,26.96 58.95,26.76L55.81,23.69C55.67,23.42 55.4,23.42 55.2,23.55Z" style="fill:rgb(255,97,54);fill-rule:nonzero;"/>
            </g>
            <g transform="matrix(1,0,0,1,4,5)">
                <path d="M3.81,37.95L41.28,0.07L33.91,0.07L0.13,34.19C-0.01,34.33 -0.07,34.6 0.13,34.8L3.2,37.87C3.4,38.07 3.68,38.07 3.81,37.94L3.81,37.95Z" style="fill:rgb(255,97,54);fill-rule:nonzero;"/>
            </g>
            <g transform="matrix(1,0,0,1,4,5)">
                <path d="M62.64,31.05L17.67,76.5L25.04,76.5L66.33,34.87C66.47,34.67 66.47,34.39 66.33,34.26L63.26,31.19C63.12,30.85 62.85,30.85 62.65,31.05L62.64,31.05Z" style="fill:rgb(255,97,54);fill-rule:nonzero;"/>
            </g>
            <g transform="matrix(1,0,0,1,4,5)">
                <path d="M70.08,38.56L32.54,76.51L39.91,76.51L73.83,42.32C73.97,42.12 73.97,41.84 73.83,41.71L70.76,38.64C70.56,38.44 70.28,38.44 70.08,38.57L70.08,38.56Z" style="fill:rgb(255,97,54);fill-rule:nonzero;"/>
            </g>
            <g transform="matrix(1,0,0,1,4,5)">
                <path d="M7.57,42.24L10.64,45.31C10.84,45.45 11.12,45.45 11.25,45.31L56.16,-0.01L48.79,-0.01L7.57,41.62C7.37,41.82 7.37,42.1 7.57,42.23L7.57,42.24Z" style="fill:rgb(255,97,54);fill-rule:nonzero;"/>
            </g>
            <g transform="matrix(1,0,0,1,4,5)">
                <path d="M14.94,49.75L18.01,52.82C18.21,52.96 18.49,52.96 18.62,52.82L70.97,0L63.6,0L14.94,49.14C14.8,49.34 14.8,49.62 14.94,49.75Z" style="fill:rgb(255,97,54);fill-rule:nonzero;"/>
            </g>
        </g>
    </g>
</svg>
